# Blender 3.6.0
# www.blender.org
o Bottle03
v 0.001756 -0.348344 -0.105521
v -0.000459 0.064401 -0.127544
v 0.084255 -0.348344 -0.065791
v 0.099201 0.067798 -0.079522
v 0.104631 -0.348344 0.023481
v 0.123815 0.068637 0.028381
v 0.047540 -0.348344 0.095071
v 0.054848 0.066286 0.114913
v -0.044028 -0.348344 0.095071
v -0.055766 0.062516 0.114913
v -0.101119 -0.348344 0.023481
v -0.124732 0.060165 0.028381
v -0.080744 -0.348344 -0.065791
v -0.100119 0.061004 -0.079522
v 0.006023 -0.304398 -0.136458
v 0.112451 -0.311830 -0.085080
v 0.138737 -0.313666 0.030365
v 0.065086 -0.308522 0.122944
v -0.053040 -0.300273 0.122944
v -0.126690 -0.295130 0.030365
v -0.100404 -0.296966 -0.085080
v 0.001756 -0.320375 0.000000
v -0.057638 0.133903 0.012499
v -0.027286 0.132380 0.050607
v 0.021395 0.129935 0.050607
v 0.051746 0.128411 0.012499
v 0.040914 0.128955 -0.035021
v -0.002946 0.131157 -0.056169
v -0.046805 0.133360 -0.035021
v -0.058692 0.147609 0.012499
v -0.028340 0.146085 0.050607
v 0.020340 0.143641 0.050607
v 0.050692 0.142117 0.012499
v 0.039860 0.142661 -0.035021
v -0.004000 0.144863 -0.056169
v -0.047860 0.147065 -0.035021
v -0.081549 0.147822 0.018302
v -0.037104 0.145591 0.074105
v 0.034180 0.142012 0.074105
v 0.078625 0.139780 0.018302
v 0.062763 0.140577 -0.051282
v -0.001462 0.143801 -0.082250
v -0.065687 0.147026 -0.051282
v -0.072790 0.191193 0.016802
v -0.031988 0.189144 0.068030
v 0.033453 0.185859 0.068030
v 0.074254 0.183810 0.016802
v 0.059692 0.184541 -0.047079
v 0.000732 0.187501 -0.075508
v -0.058228 0.190462 -0.047079
v 0.000732 0.187501 -0.000000
vn -0.0005 -0.2691 -0.9631
vn -0.0039 0.3739 -0.9275
vn 0.7151 0.4005 -0.5730
vn 0.7404 -0.3170 -0.5927
vn 0.8904 0.4070 0.2040
vn 0.9204 -0.3292 0.2109
vn 0.3968 0.3887 0.8315
vn 0.4131 -0.2953 0.8615
vn -0.4084 0.3589 0.8393
vn -0.4204 -0.2439 0.8740
vn -0.9171 0.3400 0.2083
vn -0.9522 -0.2142 0.2177
vn -0.7350 0.3468 -0.5827
vn -0.7614 -0.2246 -0.6082
vn -0.4216 -0.8526 -0.3088
vn -0.0372 -0.8823 -0.4693
vn -0.5224 -0.8454 0.1115
vn -0.2456 -0.8657 0.4362
vn 0.1578 -0.8991 0.4084
vn 0.3798 -0.9201 0.0960
vn 0.3035 -0.9126 -0.2741
vn -0.0000 -1.0000 -0.0000
vn 0.0022 0.4459 -0.8951
vn 0.6776 0.5012 -0.5383
vn 0.3833 0.4770 0.7909
vn -0.3935 0.4139 0.8209
vn -0.7201 0.3877 -0.5755
vn 0.8362 0.5143 0.1902
vn -0.9045 0.3730 0.2067
vn 0.5459 -0.8262 0.1389
vn 0.1914 -0.8291 0.5254
vn -0.5355 -0.8375 0.1088
vn -0.4507 -0.8363 -0.3122
vn 0.4140 -0.8272 -0.3799
vn -0.2868 -0.8342 0.4711
vn -0.0608 -0.8316 -0.5521
vn -0.8250 -0.5351 0.1818
vn -0.6677 -0.5427 -0.5096
vn -0.0293 -0.5738 -0.8185
vn 0.6106 -0.6051 -0.5109
vn 0.7688 -0.6129 0.1824
vn 0.3257 -0.5912 0.7379
vn -0.3838 -0.5565 0.7369
vn 0.6080 0.6482 -0.4584
vn 0.7498 0.6411 0.1636
vn 0.3526 0.6611 0.6623
vn -0.2846 0.6931 0.6623
vn -0.6818 0.7130 0.1636
vn -0.5400 0.7059 -0.4584
vn 0.0340 0.6771 -0.7351
vn 0.0501 0.9987 -0.0000
vt 0.555043 0.917401
vt 0.555201 0.912633
vt 0.555201 0.912633
vt 0.555201 0.912633
vt 0.555201 0.912633
vt 0.430904 0.056363
s 1
f 15/1/1 2/1/2 4/1/3 16/1/4
f 16/1/4 4/1/3 6/1/5 17/1/6
f 17/1/6 6/1/5 8/1/7 18/1/8
f 18/1/8 8/1/7 10/1/9 19/1/10
f 19/1/10 10/1/9 12/1/11 20/1/12
f 20/1/12 12/1/11 14/1/13 21/1/14
f 21/1/14 14/1/13 2/1/2 15/1/1
f 13/2/15 21/2/14 15/2/1 1/2/16
f 11/2/17 20/2/12 21/2/14 13/2/15
f 9/2/18 19/2/10 20/2/12 11/2/17
f 7/2/19 18/2/8 19/2/10 9/2/18
f 5/2/20 17/2/6 18/2/8 7/2/19
f 3/2/21 16/2/4 17/2/6 5/2/20
f 1/2/16 15/2/1 16/2/4 3/2/21
f 9/2/18 11/2/17 22/2/22
f 1/2/16 3/2/21 22/2/22
f 5/2/20 7/2/19 22/2/22
f 11/2/17 13/2/15 22/2/22
f 7/2/19 9/2/18 22/2/22
f 13/2/15 1/2/16 22/2/22
f 3/2/21 5/2/20 22/2/22
f 4/2/3 2/2/2 28/3/23 27/2/24
f 10/2/9 8/2/7 25/3/25 24/2/26
f 2/2/2 14/2/13 29/2/27 28/3/23
f 6/2/5 4/2/3 27/2/24 26/2/28
f 12/2/11 10/2/9 24/2/26 23/2/29
f 8/2/7 6/2/5 26/2/28 25/3/25
f 14/2/13 12/2/11 23/2/29 29/2/27
f 25/3/25 26/2/28 33/4/30 32/5/31
f 29/2/27 23/2/29 30/5/32 36/2/33
f 26/2/28 27/2/24 34/2/34 33/4/30
f 24/2/26 25/3/25 32/5/31 31/2/35
f 23/2/29 24/2/26 31/2/35 30/5/32
f 28/3/23 29/2/27 36/2/33 35/2/36
f 27/2/24 28/3/23 35/2/36 34/2/34
f 36/2/33 30/5/32 37/2/37 43/2/38
f 34/2/34 35/2/36 42/2/39 41/2/40
f 32/5/31 33/4/30 40/2/41 39/2/42
f 30/5/32 31/2/35 38/2/43 37/2/37
f 35/2/36 36/2/33 43/2/38 42/2/39
f 33/4/30 34/2/34 41/2/40 40/2/41
f 31/2/35 32/5/31 39/2/42 38/2/43
f 40/6/41 41/6/40 48/6/44 47/6/45
f 38/6/43 39/6/42 46/6/46 45/6/47
f 43/6/38 37/6/37 44/6/48 50/6/49
f 41/6/40 42/6/39 49/6/50 48/6/44
f 39/6/42 40/6/41 47/6/45 46/6/46
f 37/6/37 38/6/43 45/6/47 44/6/48
f 42/6/39 43/6/38 50/6/49 49/6/50
f 50/6/49 44/6/48 51/6/51
f 45/6/47 46/6/46 51/6/51
f 47/6/45 48/6/44 51/6/51
f 49/6/50 50/6/49 51/6/51
f 44/6/48 45/6/47 51/6/51
f 46/6/46 47/6/45 51/6/51
f 48/6/44 49/6/50 51/6/51
